<?xml version="1.0" encoding="UTF-8"?>
<!-- Generator: Adobe Illustrator 27.8.1, SVG Export Plug-In . SVG Version: 6.00 Build 0)  -->
<svg xmlns="http://www.w3.org/2000/svg" xmlns:xlink="http://www.w3.org/1999/xlink" version="1.1" id="Layer_1" x="0px" y="0px" viewBox="0 0 354.1 116.2" style="enable-background:new 0 0 354.1 116.2;" xml:space="preserve">
<style type="text/css">
	.st0{fill:#3301D2;}
	.st1{fill:#FAA828;}
</style>
<g>
	<g>
		<path class="st0" d="M6.2,30.4c0-6.4,3.6-10.8,9.3-10.8c1.7,0,3.1,0.3,3.8,0.6v-5c-0.6-0.2-1.8-0.4-3.1-0.4    c-4.9,0-8.6,2.9-10.1,7.7H5.9v-7.1H1.1v39.8h5V30.4z"></path>
		<path class="st0" d="M36.5,55.8c8.8,0,15.2-5,16.4-11.9h-5c-1.1,4.4-5.3,7.5-11.3,7.5c-7.9,0-13-5.6-13-14.6v-0.3h29.8v-2.1    c0-11.9-6.7-19.6-17.2-19.6c-10.8,0-17.8,8.3-17.8,20.6C18.4,48,25.3,55.8,36.5,55.8z M36.1,19.2c7.2,0,12,5.5,12.1,13.3H23.7    C24.1,24.7,29,19.2,36.1,19.2z"></path>
		<path class="st0" d="M91.9,55.2V0h-5.1v23.6h-0.1c-2.1-5.2-7.2-8.8-13.6-8.8c-10,0-16.9,8.1-16.9,20.5c0,12.4,7,20.5,17,20.5    c6.4,0,11.5-3.7,13.8-9.1h0.1v8.4H91.9z M74.1,51.4c-7.6,0-12.7-6.3-12.7-16.1c0-9.7,5-16.1,12.7-16.1c7.6,0,12.8,6.5,12.8,16.1    C86.9,44.9,81.7,51.4,74.1,51.4z"></path>
		<path class="st0" d="M115.1,55.8c8.8,0,15.2-5,16.4-11.9h-5c-1.1,4.4-5.3,7.5-11.3,7.5c-7.9,0-13-5.6-13-14.6v-0.3H132v-2.1    c0-11.9-6.7-19.6-17.2-19.6c-10.8,0-17.8,8.3-17.8,20.6C97.1,48,104,55.8,115.1,55.8z M114.8,19.2c7.2,0,12,5.5,12.1,13.3h-24.5    C102.7,24.7,107.6,19.2,114.8,19.2z"></path>
		<path class="st0" d="M26.4,60.5c-6,0-10.5,3-12.6,8h-0.3v-7.4H0v55.1h13.6V95.6h0.3c2,4.8,6.6,7.7,12.7,7.7    c10.4,0,16.4-7.8,16.4-21.4C43,68.3,36.9,60.5,26.4,60.5z M21.3,92.8c-4.8,0-7.8-4.2-7.8-10.8c0-6.6,3.1-10.9,7.8-10.9    c4.8,0,7.8,4.2,7.8,10.9C29.2,88.5,26.2,92.8,21.3,92.8z"></path>
		<path class="st0" d="M66.1,60.1c-11.6,0-18.9,5.6-19.3,14.1H59c0.4-2.6,2.7-4.5,6.4-4.5c3.6,0,5.9,1.8,5.9,5.2v2.4l-9.8,0.6    c-10.8,0.6-16.8,5-16.8,12.8c0,7.5,6.3,12.7,14,12.7c5,0,10.1-2.3,12.4-6.5h0.3v5.9h13.2V74.2C84.6,65.8,77.2,60.1,66.1,60.1z     M71.3,87.8c0,3.7-3.6,6.2-7.7,6.2c-3.2,0-5.4-1.6-5.4-4.2c0-2.4,2-4.1,5.5-4.4l7.6-0.5V87.8z"></path>
		<path class="st0" d="M115.8,61c-0.9-0.3-2.1-0.5-3.4-0.5c-4.9,0-8.3,2.9-9.8,8.5h-0.3v-7.9H89.1v41.6h13.6V80.8c0-5.8,3.1-9,8.8-9    c1.6,0,3.2,0.3,4.3,0.8V61z"></path>
		<path class="st0" d="M136.9,70.4c3.9,0,6.5,2.8,7,7.1h12.5c-0.3-10.4-8-17.4-19.7-17.4c-13,0-21.1,8.3-21.1,21.8    c0,13.7,8.1,21.8,21.1,21.8c11.7,0,19.3-6.6,19.6-17.2h-12.4c-0.5,4.3-3.1,6.9-7,6.9c-4.8,0-7.6-4.1-7.6-11.5    C129.3,74.5,132.1,70.4,136.9,70.4z"></path>
		<path class="st0" d="M178.8,60.1c-12.7,0-20.7,8.6-20.7,22c0,13.5,7.9,21.6,21.2,21.6c10.9,0,18.5-5.5,19.8-14.1h-12.2    c-1,2.8-3.8,4.6-7.4,4.6c-4.9,0-8.2-3.4-8.2-8.4v-0.8h28.1V81C199.4,68.3,191.4,60.1,178.8,60.1z M171.4,77.1    c0.3-4.3,3.4-7.4,7.6-7.4c4.3,0,7.3,3,7.5,7.4H171.4z"></path>
		<path class="st0" d="M216.1,69h-0.3v-7.9h-13.2v41.6h13.6V80.8c0-5.8,3.1-9,8.8-9c1.6,0,3.2,0.3,4.3,0.8V61    c-0.9-0.3-2.1-0.5-3.4-0.5C221,60.5,217.6,63.3,216.1,69z"></path>
		<path class="st0" d="M238.3,44.5c-3.9,0-7,2.9-7,6.6c0,3.7,3,6.7,7,6.7c3.9,0,6.9-2.9,6.9-6.7C245.3,47.3,242.3,44.5,238.3,44.5z"></path>
		<rect x="231.6" y="61.1" class="st0" width="13.5" height="41.6"></rect>
		<path class="st0" d="M269.5,60.1c-11.6,0-18.9,5.6-19.3,14.1h12.2c0.4-2.6,2.7-4.5,6.4-4.5c3.6,0,5.9,1.8,5.9,5.2v2.4l-9.8,0.6    c-10.8,0.6-16.8,5-16.8,12.8c0,7.5,6.3,12.7,14,12.7c5,0,10.1-2.3,12.4-6.5h0.3v5.9H288V74.2C288,65.8,280.6,60.1,269.5,60.1z     M274.7,87.8c0,3.7-3.6,6.2-7.7,6.2c-3.2,0-5.4-1.6-5.4-4.2c0-2.4,2-4.1,5.5-4.4l7.6-0.5V87.8z"></path>
		<path class="st0" d="M318.2,78.1l-8.7-1.8c-3.1-0.6-4.7-1.8-4.7-3.5c0-2.1,2.1-3.6,5.5-3.6c3.7,0,6.1,1.9,6.2,4.9h12.4    c-0.1-8.6-7.2-14-18.5-14c-11.5,0-18.6,5.3-18.6,13.6c0,6.4,4.3,10.7,12.4,12.4l7.9,1.6c3.2,0.7,4.5,1.6,4.5,3.3    c0,2.2-2.2,3.5-5.8,3.5c-4,0-6.5-1.8-6.8-4.9h-13.2c0.6,8.5,7.6,14.1,19.8,14.1c11.6,0,19.5-5.5,19.5-14.2    C330,83.2,326.5,79.8,318.2,78.1z"></path>
	</g>
	<path class="st1" d="M334.4,93.6c0-5.4,4.4-9.8,9.8-9.8c5.4,0,9.8,4.4,9.8,9.8c0,5.4-4.4,9.8-9.8,9.8   C338.8,103.4,334.4,99,334.4,93.6z"></path>
</g>
</svg>
